<svg xmlns="http://www.w3.org/2000/svg" width="161" height="35" viewBox="0 0 161 35">
<g>
<path d="M 0.00 0.00 L 161.00 0.00 L 161.00 35.00 L 0.00 35.00 ZM 65.00 17.00 C65.00,22.56 65.31,24.00 66.50,24.00 C67.43,24.00 68.00,23.06 68.00,21.50 C68.00,20.09 68.58,19.00 69.33,19.00 C70.06,19.00 71.26,20.12 72.00,21.50 C73.07,23.50 74.11,24.00 77.17,24.00 C79.28,24.00 81.00,23.57 81.00,23.04 C81.00,22.50 81.98,21.54 83.18,20.90 C85.03,19.91 85.63,20.06 87.09,21.87 C88.79,23.96 90.99,24.74 91.01,23.25 C91.02,22.84 90.03,19.69 88.83,16.25 C87.06,11.24 86.21,10.00 84.51,10.00 C82.79,10.00 82.01,11.17 80.41,16.18 C79.32,19.58 78.00,22.50 77.47,22.67 C76.93,22.84 75.42,21.40 74.10,19.46 L 71.69 15.93 L 74.53 12.96 C77.21,10.18 77.25,10.00 75.26,10.00 C74.07,10.00 72.03,11.42 70.58,13.25 L 68.02 16.50 L 68.01 13.25 C68.00,11.03 67.52,10.00 66.50,10.00 C65.31,10.00 65.00,11.44 65.00,17.00 ZM 108.00 17.00 C108.00,22.56 108.31,24.00 109.50,24.00 C110.43,24.00 111.00,23.06 111.00,21.50 C111.00,20.12 111.40,19.00 111.88,19.00 C112.37,19.00 113.51,20.12 114.41,21.50 C116.62,24.87 119.40,24.97 117.88,21.63 C117.10,19.92 117.10,18.68 117.90,17.19 C118.50,16.06 119.00,14.68 119.00,14.14 C119.00,11.94 115.68,10.00 111.93,10.00 L 108.00 10.00 ZM 38.00 17.00 C38.00,22.56 38.31,24.00 39.50,24.00 C40.43,24.00 41.00,23.06 41.00,21.50 C41.00,20.12 41.46,19.00 42.02,19.00 C42.58,19.00 43.56,20.12 44.18,21.50 C44.81,22.88 46.16,24.00 47.20,24.00 C48.71,24.00 48.88,23.65 48.08,22.14 C47.53,21.12 47.36,18.58 47.70,16.49 C48.43,11.97 46.49,10.00 41.31,10.00 L 38.00 10.00 ZM 12.00 17.00 C12.00,22.43 12.32,24.00 13.44,24.00 C14.42,24.00 14.98,22.65 15.19,19.81 L 15.50 15.61 L 18.26 19.81 C22.47,26.19 24.00,25.44 24.00,17.00 C24.00,11.44 23.69,10.00 22.50,10.00 C21.38,10.00 21.00,11.20 20.98,14.75 L 20.96 19.50 L 17.98 14.75 C13.60,7.78 12.00,8.38 12.00,17.00 ZM 50.00 23.25 C50.00,24.64 52.78,24.02 53.36,22.50 C53.68,21.67 55.09,21.00 56.50,21.00 C57.91,21.00 59.32,21.67 59.64,22.50 C60.22,24.02 63.00,24.64 63.00,23.25 C63.00,22.84 61.99,19.69 60.76,16.25 C59.02,11.39 58.07,10.00 56.50,10.00 C54.93,10.00 53.98,11.39 52.24,16.25 C51.01,19.69 50.00,22.84 50.00,23.25 ZM 93.00 23.19 C93.00,23.64 93.68,24.00 94.50,24.00 C95.32,24.00 96.00,23.57 96.00,23.04 C96.00,22.50 96.98,21.54 98.18,20.90 C100.03,19.91 100.63,20.06 102.09,21.87 C103.80,23.98 106.00,24.73 106.00,23.21 C106.00,22.78 104.96,19.74 103.69,16.46 C102.02,12.13 100.82,10.42 99.31,10.19 C97.56,9.94 96.88,10.90 95.11,16.14 C93.95,19.58 93.00,22.75 93.00,23.19 ZM 26.00 17.00 C26.00,22.56 26.31,24.00 27.50,24.00 C28.43,24.00 29.00,23.06 29.00,21.50 C29.00,19.39 29.47,19.00 32.00,19.00 C27.82,16.00 27.97,13.23 32.17,12.81 C37.70,12.27 36.82,10.00 31.08,10.00 L 26.00 10.00 ZM 140.00 13.00 L 140.00 21.00 L 148.00 21.00 L 148.00 13.00 ZM 124.00 18.50 C124.00,22.72 124.35,24.00 125.50,24.00 C126.65,24.00 127.00,22.73 127.00,18.57 C127.00,13.76 127.25,13.10 129.17,12.82 C130.37,12.64 131.53,11.94 131.76,11.25 C132.05,10.34 130.50,10.00 126.08,10.00 C121.34,10.00 120.00,10.33 120.00,11.50 C120.00,12.33 120.89,13.00 122.00,13.00 C123.76,13.00 124.00,13.67 124.00,18.50 ZM 7.00 17.00 C7.00,22.56 7.31,24.00 8.50,24.00 C9.69,24.00 10.00,22.56 10.00,17.00 C10.00,11.44 9.69,10.00 8.50,10.00 C7.31,10.00 7.00,11.44 7.00,17.00 ZM 44.81 14.74 C44.31,17.35 41.00,17.64 41.00,15.07 C41.00,13.64 41.64,13.00 43.07,13.00 C44.50,13.00 45.04,13.54 44.81,14.74 ZM 114.82 14.67 C114.24,17.68 111.00,17.40 111.00,14.33 C111.00,13.60 111.93,13.00 113.07,13.00 C114.47,13.00 115.04,13.54 114.82,14.67 ZM 57.98 17.25 C57.99,17.66 57.28,18.00 56.39,18.00 C55.34,18.00 54.99,17.46 55.39,16.42 C55.73,15.55 56.01,14.54 56.02,14.17 C56.04,13.27 57.97,16.29 57.98,17.25 ZM 85.98 17.25 C85.99,17.66 85.28,18.00 84.39,18.00 C83.34,18.00 82.99,17.46 83.39,16.42 C83.73,15.55 84.01,14.54 84.02,14.17 C84.04,13.27 85.97,16.29 85.98,17.25 ZM 100.27 15.92 C100.63,17.30 100.34,18.00 99.41,18.00 C97.81,18.00 97.64,17.11 98.88,15.17 C99.52,14.15 99.85,14.33 100.27,15.92 Z" fill="rgb(15,15,15)"/>
<path d="M 65.00 17.00 C65.00,11.44 65.31,10.00 66.50,10.00 C67.52,10.00 68.00,11.03 68.01,13.25 L 68.02 16.50 L 70.58 13.25 C72.03,11.42 74.07,10.00 75.26,10.00 C77.25,10.00 77.21,10.18 74.53,12.96 L 71.69 15.93 L 74.10 19.46 C75.42,21.40 76.93,22.84 77.47,22.67 C78.00,22.50 79.32,19.58 80.41,16.18 C82.01,11.17 82.79,10.00 84.51,10.00 C86.21,10.00 87.06,11.24 88.83,16.25 C90.03,19.69 91.02,22.84 91.01,23.25 C90.99,24.74 88.79,23.96 87.09,21.87 C85.63,20.06 85.03,19.91 83.18,20.90 C81.98,21.54 81.00,22.50 81.00,23.04 C81.00,23.57 79.28,24.00 77.17,24.00 C74.11,24.00 73.07,23.50 72.00,21.50 C71.26,20.12 70.06,19.00 69.33,19.00 C68.58,19.00 68.00,20.09 68.00,21.50 C68.00,23.06 67.43,24.00 66.50,24.00 C65.31,24.00 65.00,22.56 65.00,17.00 ZM 108.00 17.00 L 108.00 10.00 L 111.93 10.00 C115.68,10.00 119.00,11.94 119.00,14.14 C119.00,14.68 118.50,16.06 117.90,17.19 C117.10,18.68 117.10,19.92 117.88,21.63 C119.40,24.97 116.62,24.87 114.41,21.50 C113.51,20.12 112.37,19.00 111.88,19.00 C111.40,19.00 111.00,20.12 111.00,21.50 C111.00,23.06 110.43,24.00 109.50,24.00 C108.31,24.00 108.00,22.56 108.00,17.00 ZM 93.00 23.19 C93.00,22.75 93.95,19.58 95.11,16.14 C96.88,10.90 97.56,9.94 99.31,10.19 C100.82,10.42 102.02,12.13 103.69,16.46 C104.96,19.74 106.00,22.78 106.00,23.21 C106.00,24.73 103.80,23.98 102.09,21.87 C100.63,20.06 100.03,19.91 98.18,20.90 C96.98,21.54 96.00,22.50 96.00,23.04 C96.00,23.57 95.32,24.00 94.50,24.00 C93.68,24.00 93.00,23.64 93.00,23.19 ZM 140.00 13.00 L 148.00 13.00 L 148.00 21.00 L 140.00 21.00 ZM 124.00 18.50 C124.00,13.67 123.76,13.00 122.00,13.00 C120.89,13.00 120.00,12.33 120.00,11.50 C120.00,10.33 121.34,10.00 126.08,10.00 C130.50,10.00 132.05,10.34 131.76,11.25 C131.53,11.94 130.37,12.64 129.17,12.82 C127.25,13.10 127.00,13.76 127.00,18.57 C127.00,22.73 126.65,24.00 125.50,24.00 C124.35,24.00 124.00,22.72 124.00,18.50 ZM 114.82 14.67 C115.04,13.54 114.47,13.00 113.07,13.00 C111.93,13.00 111.00,13.60 111.00,14.33 C111.00,17.40 114.24,17.68 114.82,14.67 ZM 85.98 17.25 C85.97,16.29 84.04,13.27 84.02,14.17 C84.01,14.54 83.73,15.55 83.39,16.42 C82.99,17.46 83.34,18.00 84.39,18.00 C85.28,18.00 85.99,17.66 85.98,17.25 ZM 100.27 15.92 C99.85,14.33 99.52,14.15 98.88,15.17 C97.64,17.11 97.81,18.00 99.41,18.00 C100.34,18.00 100.63,17.30 100.27,15.92 Z" fill="rgb(229,175,8)"/>
<path d="M 7.00 17.00 C7.00,11.44 7.31,10.00 8.50,10.00 C9.69,10.00 10.00,11.44 10.00,17.00 C10.00,22.56 9.69,24.00 8.50,24.00 C7.31,24.00 7.00,22.56 7.00,17.00 ZM 12.00 17.00 C12.00,8.38 13.60,7.78 17.98,14.75 L 20.96 19.50 L 20.98 14.75 C21.00,11.20 21.38,10.00 22.50,10.00 C23.69,10.00 24.00,11.44 24.00,17.00 C24.00,25.44 22.47,26.19 18.26,19.81 L 15.50 15.61 L 15.19 19.81 C14.98,22.65 14.42,24.00 13.44,24.00 C12.32,24.00 12.00,22.43 12.00,17.00 ZM 26.00 17.00 L 26.00 10.00 L 31.08 10.00 C36.82,10.00 37.70,12.27 32.17,12.81 C27.97,13.23 27.82,16.00 32.00,16.00 C34.00,16.00 35.00,16.50 35.00,17.50 C35.00,18.50 34.00,19.00 32.00,19.00 C29.47,19.00 29.00,19.39 29.00,21.50 C29.00,23.06 28.43,24.00 27.50,24.00 C26.31,24.00 26.00,22.56 26.00,17.00 ZM 38.00 17.00 L 38.00 10.00 L 41.31 10.00 C46.49,10.00 48.43,11.97 47.70,16.49 C47.36,18.58 47.53,21.12 48.08,22.14 C48.88,23.65 48.71,24.00 47.20,24.00 C46.16,24.00 44.81,22.88 44.18,21.50 C43.56,20.12 42.58,19.00 42.02,19.00 C41.46,19.00 41.00,20.12 41.00,21.50 C41.00,23.06 40.43,24.00 39.50,24.00 C38.31,24.00 38.00,22.56 38.00,17.00 ZM 44.81 14.74 C45.04,13.54 44.50,13.00 43.07,13.00 C41.64,13.00 41.00,13.64 41.00,15.07 C41.00,17.64 44.31,17.35 44.81,14.74 ZM 50.00 23.25 C50.00,22.84 51.01,19.69 52.24,16.25 C53.98,11.39 54.93,10.00 56.50,10.00 C58.07,10.00 59.02,11.39 60.76,16.25 C61.99,19.69 63.00,22.84 63.00,23.25 C63.00,24.64 60.22,24.02 59.64,22.50 C59.32,21.67 57.91,21.00 56.50,21.00 C55.09,21.00 53.68,21.67 53.36,22.50 C52.78,24.02 50.00,24.64 50.00,23.25 ZM 57.98 17.25 C57.97,16.29 56.04,13.27 56.02,14.17 C56.01,14.54 55.73,15.55 55.39,16.42 C54.99,17.46 55.34,18.00 56.39,18.00 C57.28,18.00 57.99,17.66 57.98,17.25 Z" fill="rgb(252,252,252)"/>
</g>
</svg>